<svg fill="none" xmlns="http://www.w3.org/2000/svg">
<path d="M3 10V14H1.5V11.5C1.5 11.1022 1.65804 10.7206 1.93934 10.4393C2.22064 10.158 2.60218 10 3 10ZM13 10V14H14.5V11.5C14.5 11.1022 14.342 10.7206 14.0607 10.4393C13.7794 10.158 13.3978 10 13 10ZM13 1.5H10.5C10.1022 1.5 9.72064 1.65804 9.43934 1.93934C9.15804 2.22064 9 2.60218 9 3H13V1.5ZM13.998 6.5H11.7009C11.4038 5.76166 10.8926 5.12907 10.2331 4.68357C9.57358 4.23806 8.79589 4.00001 8 4.00001C7.20411 4.00001 6.42642 4.23806 5.7669 4.68357C5.10739 5.12907 4.5962 5.76166 4.29907 6.5H2V8H4V10C4 11.0609 4.42143 12.0783 5.17157 12.8284C5.92172 13.5786 6.93913 14 8 14C9.06087 14 10.0783 13.5786 10.8284 12.8284C11.5786 12.0783 12 11.0609 12 10V8H13.998V6.5ZM5.5 1.5H3V3H7C7 2.60218 6.84196 2.22064 6.56066 1.93934C6.27936 1.65804 5.89782 1.5 5.5 1.5Z" fill="#161616"/>
</svg>